HIERARCHY
ROOT Hips
{
	OFFSET -3.958830 18.904000 13.208200
	CHANNELS 6 Xposition Yposition Zposition Zrotation Yrotation Xrotation 
	JOINT LHipJoint
	{
		OFFSET 0.000000 0.000000 0.000000
		CHANNELS 3 Zrotation Yrotation Xrotation
		JOINT LeftUpLeg
		{
			OFFSET 1.800000 -1.400000 0.085000
			CHANNELS 3 Zrotation Yrotation Xrotation
			JOINT LeftLeg
			{
				OFFSET 2.215000 -6.000000 0.000000
				CHANNELS 3 Zrotation Yrotation Xrotation
				JOINT LeftFoot
				{
					OFFSET 2.500000 -6.900000 0.000000
					CHANNELS 3 Zrotation Yrotation Xrotation
					JOINT LeftToeBase
					{
						OFFSET 0.200000 -0.500000 1.950000
						CHANNELS 3 Zrotation Yrotation Xrotation
						End Site
						{
							OFFSET 0.000000 0.000000 0.000000
						}
					}
				}
			}
		}
	}
	JOINT RHipJoint
	{
		OFFSET 0.000000 0.000000 0.000000
		CHANNELS 3 Zrotation Yrotation Xrotation
		JOINT RightUpLeg
		{
			OFFSET -1.800000 -1.400000 0.085000
			CHANNELS 3 Zrotation Yrotation Xrotation
			JOINT RightLeg
			{
				OFFSET -2.215000 -6.000000 0.000000
				CHANNELS 3 Zrotation Yrotation Xrotation
				JOINT RightFoot
				{
					OFFSET -2.500000 -6.900000 0.000000
					CHANNELS 3 Zrotation Yrotation Xrotation
					JOINT RightToeBase
					{
						OFFSET -0.200000 -0.500000 1.950000
						CHANNELS 3 Zrotation Yrotation Xrotation
						End Site
						{
							OFFSET 0.000000 0.000000 0.000000
						}
					}
				}
			}
		}
	}
	JOINT LowerBack
	{
		OFFSET 0.000000 0.000000 0.000000
		CHANNELS 3 Zrotation Yrotation Xrotation
		JOINT Spine
		{
			OFFSET -0.087000 1.940000 -0.288900
			CHANNELS 3 Zrotation Yrotation Xrotation
			JOINT Spine1
			{
				OFFSET 0.000000 1.950000 0.060000
				CHANNELS 3 Zrotation Yrotation Xrotation
				JOINT Neck
				{
					OFFSET 0.000000 0.000000 0.000000
					CHANNELS 3 Zrotation Yrotation Xrotation
					JOINT Neck1
					{
						OFFSET 0.000000 1.600000 0.340000
						CHANNELS 3 Zrotation Yrotation Xrotation
						JOINT Head
						{
							OFFSET 0.000000 1.667000 -0.240000
							CHANNELS 3 Zrotation Yrotation Xrotation
							End Site
							{
								OFFSET 0.000000 0.000000 0.000000
							}
						}
					}
				}
				JOINT LeftShoulder
				{
					OFFSET 0.000000 0.000000 0.000000
					CHANNELS 3 Zrotation Yrotation Xrotation
					JOINT LeftArm
					{
						OFFSET 2.700000 1.550000 -0.730000
						CHANNELS 3 Zrotation Yrotation Xrotation
						JOINT LeftForeArm
						{
							OFFSET 5.450000 0.000000 0.000000
							CHANNELS 3 Zrotation Yrotation Xrotation
							JOINT LeftHand
							{
								OFFSET 3.450000 0.000000 0.000000
								CHANNELS 3 Zrotation Yrotation Xrotation
								JOINT LeftHandIndex1
								{
									OFFSET 0.750000 0.000000 0.000000
									CHANNELS 3 Zrotation Yrotation Xrotation
									End Site
									{
										OFFSET 0.000000 0.000000 0.000000
									}
								}
							}
						}
					}
				}
				JOINT RightShoulder
				{
					OFFSET 0.000000 0.000000 0.000000
					CHANNELS 3 Zrotation Yrotation Xrotation
					JOINT RightArm
					{
						OFFSET -2.700000 1.550000 -0.730000
						CHANNELS 3 Zrotation Yrotation Xrotation
						JOINT RightForeArm
						{
							OFFSET -5.450000 0.000000 0.000000
							CHANNELS 3 Zrotation Yrotation Xrotation
							JOINT RightHand
							{
								OFFSET -3.450000 0.000000 0.000000
								CHANNELS 3 Zrotation Yrotation Xrotation
								JOINT RightHandIndex1
								{
									OFFSET -0.750000 0.000000 0.000000
									CHANNELS 3 Zrotation Yrotation Xrotation
									End Site
									{
										OFFSET 0.000000 0.000000 0.000000
									}
								}
							}
						}
					}
				}
			}
		}
	}
}
MOTION
Frames: 4
Frame Time: 0.016667
9.872130 16.318740 -18.502920 12.422576 32.827050 -7.823145 -15.716716 11.539601 5.468014 4.696012 -10.183287 -40.630706 2.477671 22.463758 89.942493 2.780007 16.341129 -0.810000 0.265260 0.228620 0.419560 17.934825 -10.651931 1.673582 -5.948196 1.212268 0.028935 2.635121 -7.981152 37.439879 -0.888506 -6.092828 2.086767 0.016060 -0.416540 -0.021860 -2.614236 -0.524044 -8.392723 2.016775 11.235054 28.687753 9.120539 10.169423 9.313156 -1.455216 6.301641 -19.670580 24.743618 -25.777852 73.691619 1.569880 -11.355510 6.544940 -10.957734 -15.886952 10.952068 -8.334649 16.245292 -1.896516 5.508767 -3.325890 -0.227699 -3.568633 2.647343 0.359460 -0.312020 0.384600 -0.119720 14.310458 20.134316 9.857535 51.648014 6.273293 -3.406071 6.456969 12.984933 0.208665 2.689123 -1.112961 0.114130 0.001110 -0.118130 -0.114920 
9.893580 16.383500 -18.482140 13.976379 35.442859 -7.122802 -15.765032 11.285562 5.668548 3.172936 -11.646596 -43.250351 4.639036 22.256098 94.773948 2.965098 16.900062 -0.913442 0.270890 0.233220 0.419580 17.935415 -10.532078 1.555871 -8.478915 0.685918 2.112703 5.283513 -8.934403 33.707598 -0.856608 -6.045606 2.094073 0.018460 -0.429610 -0.007150 -2.469966 -0.534662 -8.370548 0.189104 11.990847 27.401061 9.619193 9.904904 9.747332 -1.178800 6.460746 -19.686033 26.452446 -27.252999 73.393768 1.324940 -11.870290 7.877540 -11.340040 -15.550582 10.806083 -9.770490 16.440586 -2.197766 6.358082 -5.037251 -0.145347 -3.533758 2.733063 0.332990 -0.302490 0.378500 -0.120710 14.266610 19.926075 9.938287 50.642638 6.728385 -4.011819 9.517561 17.880767 0.408476 2.645781 -1.179992 0.133850 -0.038470 -0.128140 -0.111570 
9.919380 16.477010 -18.451450 15.507194 37.295135 -6.059522 -15.771198 10.912919 5.913255 2.032011 -13.179365 -46.267606 6.040471 22.813958 99.350816 3.197242 17.539818 -1.009932 0.259810 0.230770 0.384220 17.983970 -10.437173 1.479153 -10.487496 0.272054 3.985492 7.049031 -9.322171 29.890519 -0.825661 -5.951924 2.137401 0.006130 -0.402540 -0.004950 -2.482705 -0.314442 -8.431221 -0.981778 12.426069 26.108040 9.250457 9.599660 10.469996 -1.138365 6.427661 -19.962123 27.143502 -27.184501 73.917455 2.895430 -12.526550 8.861420 -9.974256 -16.107184 11.174506 -11.644279 14.920077 -2.340822 3.862707 -2.988627 -0.238686 -3.566202 2.716396 0.304230 -0.293620 0.363460 -0.106480 12.881273 20.325492 10.036298 49.383587 8.491420 -3.400523 14.104413 20.520123 1.069580 2.648061 -1.217567 0.149620 -0.048700 -0.127420 -0.084270 
9.945500 16.581440 -18.424010 17.385484 38.340464 -4.436708 -15.772811 10.607493 6.134871 1.193329 -14.461670 -48.960357 6.419270 23.612127 101.865335 3.383040 17.983837 -1.060897 0.232780 0.215920 0.309800 18.021552 -10.372906 1.420633 -12.279368 -0.026011 5.349570 7.522653 -9.066895 26.050059 -0.768168 -5.769254 2.222131 -0.017570 -0.357830 -0.002960 -2.512048 -0.143423 -8.513740 -2.521762 12.438540 24.810223 8.884545 8.985588 11.045637 -1.436256 6.130539 -20.291160 25.560717 -25.221618 75.264461 4.415730 -13.270180 9.835140 -7.723475 -17.411948 11.543239 -13.907862 11.081224 -2.550898 -1.544981 6.721797 -1.128505 -3.749070 2.608542 0.267430 -0.282510 0.335070 -0.082850 11.333631 21.328653 10.398161 48.047638 9.951852 -3.863471 19.693774 26.519200 2.343580 2.629690 -1.296297 0.167820 -0.060840 -0.115900 -0.040120 
